<svg xmlns="http://www.w3.org/2000/svg" viewBox="0 0 24 24">
  <path fill="#647084" d="M12 .5C5.73.5.75 5.62.75 12c0 5.1 3.22 9.42 7.69 10.95.56.11.77-.25.77-.55l-.02-2.17c-3.13.69-3.79-1.37-3.79-1.37-.51-1.33-1.25-1.68-1.25-1.68-1.02-.72.08-.7.08-.7 1.13.08 1.72 1.18 1.72 1.18 1 1.75 2.63 1.25 3.27.95.1-.74.39-1.25.71-1.54-2.5-.29-5.13-1.27-5.13-5.67 0-1.25.44-2.28 1.16-3.08-.12-.29-.5-1.46.11-3.04 0 0 .95-.31 3.09 1.18A10.56 10.56 0 0 1 12 6.08c.96 0 1.91.13 2.81.38 2.14-1.49 3.08-1.18 3.08-1.18.62 1.58.23 2.75.12 3.04.72.8 1.16 1.83 1.16 3.08 0 4.41-2.64 5.37-5.15 5.65.4.36.76 1.06.76 2.14l-.01 3.2c0 .31.2.67.78.56A11.5 11.5 0 0 0 23.25 12C23.25 5.62 18.27.5 12 .5Z"/>
</svg>
