<svg xmlns="http://www.w3.org/2000/svg" viewBox="0 0 1254 1254">
  <defs>
    <linearGradient id="bg" x1="70" y1="70" x2="1184" y2="1184" gradientUnits="userSpaceOnUse">
      <stop stop-color="#1b77f7"/>
      <stop offset=".52" stop-color="#306cf0"/>
      <stop offset="1" stop-color="#4858e7"/>
    </linearGradient>
  </defs>
  <rect width="1254" height="1254" rx="143" fill="url(#bg)"/>
  <path fill="#fefefe" d="M253 304 250 308 250 809 257 828 264 836 273 842 288 846 359 850 367 853 377 864 379 870 379 890 353 985 354 993 356 995 363 994 514 890 535 897 564 911 585 925 608 945 612 943 617 934 617 695 580 694 580 733 575 740 567 742 560 738 497 681 496 678 497 671 502 665 561 612 566 609 571 609 575 611 580 618 580 657 723 657 728 659 737 670 736 684 730 691 722 695 641 695 641 933 644 941 649 945 668 928 696 909 721 897 742 890 894 995 899 995 902 991 902 985 881 909 876 886 876 873 879 863 887 854 897 850 968 846 983 842 994 834 1003 820 1006 809 1006 307 998 301 983 297 944 292 880 293 820 302 765 318 717 340 682 363 659 384 647 400 641 416 641 551 679 551 679 513 685 505 692 503 697 505 755 558 764 568 763 578 754 587 699 635 693 638 689 638 683 635 679 628 679 589 534 589 528 586 521 577 520 568 523 560 530 553 535 551 617 551 617 412 611 399 604 389 591 375 573 360 547 343 509 324 470 310 419 298 367 292 315 292 280 296 262 300Z"/>
</svg>
